<svg width="32" height="32" viewBox="0 0 32 32" fill="none" xmlns="http://www.w3.org/2000/svg">
<path fill-rule="evenodd" clip-rule="evenodd" d="M15.4829 15.1031C15.979 14.8167 16.6141 14.9869 16.9005 15.4829C17.1869 15.979 17.0168 16.6141 16.5207 16.9005C16.0246 17.1869 15.3895 17.0168 15.1031 16.5207C14.8167 16.0246 14.9869 15.3895 15.4829 15.1031ZM17.7291 18.9936L10.0182 19.4564L14.2745 13.01L21.9854 12.5472L17.7291 18.9936ZM23.1546 11.2287L13.8895 11.7848C13.6926 11.7966 13.5146 11.8994 13.406 12.064L8.29178 19.8097C8.16227 20.0067 8.15516 20.2601 8.27294 20.4641C8.39073 20.6681 8.61369 20.7886 8.84905 20.7749L18.1142 20.2188C18.2123 20.2124 18.3059 20.1836 18.3886 20.1358C18.4713 20.0881 18.5431 20.0215 18.5977 19.9397L23.7118 12.1939C23.8414 11.9969 23.8485 11.7435 23.7307 11.5395C23.6129 11.3355 23.3899 11.215 23.1546 11.2287ZM20.8792 24.4496C16.2203 27.1394 10.2433 25.5372 7.55398 20.8792C4.86469 16.2212 6.46556 10.2438 11.1245 7.55398C15.7833 4.86417 21.7604 6.46646 24.4496 11.1244C27.1389 15.7824 25.5381 21.7598 20.8792 24.4496ZM10.5018 6.47553C5.24888 9.50832 3.44275 16.2489 6.47553 21.5018C9.50832 26.7547 16.2489 28.5609 21.5018 25.5281C26.7547 22.4953 28.5609 15.7547 25.5281 10.5018C22.4953 5.24888 15.7547 3.44275 10.5018 6.47553Z" fill="#766AC4"/>
</svg>
